<!-- Generated by IcoMoon.io -->
<svg version="1.1" xmlns="http://www.w3.org/2000/svg" width="32" height="32" viewBox="0 0 32 32">
<title>arrow-wave</title>
<path d="M24 5.344l-5.344 5.312h4v9.344c0 1.472-1.184 2.656-2.656 2.656s-2.656-1.184-2.656-2.656v0-9.344c0-2.944-2.4-5.312-5.344-5.312s-5.344 2.368-5.344 5.312v0 9.344h-4l5.344 5.344 5.344-5.344h-4v-9.344c0-1.472 1.184-2.656 2.656-2.656s2.656 1.184 2.656 2.656v0 9.344c0 2.944 2.4 5.344 5.344 5.344s5.344-2.4 5.344-5.344v0-9.344h4z"></path>
</svg>
